<svg id="Layer_1" data-name="Layer 1" xmlns="http://www.w3.org/2000/svg" viewBox="0 0 286 70.07"><defs><style>.cls-1{fill:#3b3b3c;}.cls-2{fill:#ef3b24;}</style></defs><title>6Artboard 1</title><path class="cls-1" d="M27.9,50.452A17.242,17.242,0,1,1,39.1,46.285l-11.1-8.553V50.447c-.042,0-.074,0-.112,0M55.649,33.243A27.753,27.753,0,1,0,27.9,61l.112,0V50.448l25.265,19.44V57.206L47.56,52.8a27.64,27.64,0,0,0,8.089-19.56"/><polygon class="cls-1" points="90.417 27.148 79.984 43.761 69.55 27.148 58.233 27.148 79.947 61.723 80.019 61.723 101.734 27.148 90.417 27.148"/><path class="cls-1" d="M264.221,40.708l-3.731-1.369c-2.8-.957-4.041-1.64-4.041-3.009,0-1.642,1.633-2.394,4.12-2.394a13.252,13.252,0,0,1,6.784,1.923l6.7-4.779c-3.453-3.156-8.035-4.737-13.409-4.737-8.16,0-14.145,3.693-14.145,10.192,0,5.336,3.964,8,10.492,10.329l4.119,1.506c2.331.889,3.964,1.5,3.964,3.078,0,1.916-2.253,2.8-4.9,2.8a14.9,14.9,0,0,1-8.543-2.8l-6.666,4.754c3.471,3.436,8.768,5.636,15.054,5.636,8.393,0,15-3.83,15-10.807,0-5.268-3.886-7.868-10.8-10.33"/><path class="cls-1" d="M136.566,41.221a18.273,18.273,0,0,0-17.054-15.386l0-.02c-.334-.017-.671-.028-1.01-.028-10.484,0-18.983,8.031-18.983,17.937,0,.518.028,1.022.067,1.52v0a16.73,16.73,0,0,0,6.721,12.207,19.33,19.33,0,0,0,6.975,3.516,22.309,22.309,0,0,0,6.123.771,21.969,21.969,0,0,0,14.1-5.128l-6.21-4.522a12.153,12.153,0,0,1-6.827,2.385c-6.762,0-10.676-3.245-12.211-7.541h.027l-.009-.024h28.276s.155-2.235.154-2.244a17.438,17.438,0,0,0-.135-3.445m-18.588-8.007c4.488,0,8.611,2.742,9.492,6.685H108.644a9.847,9.847,0,0,1,9.334-6.685"/><path class="cls-1" d="M159.276,26.671A18.341,18.341,0,0,0,150,29.162l-2.885-2.014h-5.054l-.009,34.116h9.993V41.374c0-3.641,3.239-6.592,7.235-6.592s7.234,2.951,7.234,6.592v19.89H176.5v-18.9c0-8.668-7.713-15.695-17.227-15.695"/><path class="cls-1" d="M230.306,27.149V47.044c0,3.639-3.243,6.588-7.245,6.588s-7.244-2.949-7.244-6.588v-19.9h-10v18.9c0,8.665,7.722,15.689,17.249,15.689a18.367,18.367,0,0,0,9.342-2.523l2.735,2.047H240.4V27.148Z"/><path class="cls-1" d="M197.464,53.413c-2.5,0-5.943-.421-5.943-4.639V34.747h5.564l4.043-7.6h-9.607V16.674l-9.76,5.146V48.864c0,8.467,5.572,12.4,14.514,12.4H201.9V53.413Z"/><polygon class="cls-2" points="260.488 0.103 260.488 12.814 285.734 32.263 285.734 19.547 260.488 0.103"/></svg>